<svg width="60" height="50" viewBox="0 0 60 50" fill="none" xmlns="http://www.w3.org/2000/svg">
<rect width="60" height="50" fill="#E5E5E5"/>
<g id="Frame 1" clip-path="url(#clip0_57_18)">
<rect width="1600" height="960" transform="translate(-136 -81)" fill="#D7D7D7"/>
<g id="logo 1" clip-path="url(#clip1_57_18)">
<g id="Group">
<path id="Vector" d="M15.521 0.275077C14.2825 2.20168 12.5393 5.43563 12.677 5.57324C12.7687 5.66498 19.1449 5.77966 26.8283 5.8026C39.5806 5.84847 40.7962 5.87141 40.865 6.21544C40.9109 6.4448 40.4981 7.29343 39.9935 8.14205C39.466 9.01361 38.9384 9.93104 38.8237 10.1833C38.6861 10.4586 38.4568 10.9173 38.2733 11.2154C38.1127 11.5365 38.021 11.8806 38.0669 11.9723C38.2504 12.2705 51.232 12.1787 51.232 11.8806C51.232 11.743 50.9338 11.1237 50.5439 10.5044C50.154 9.9081 49.8559 9.31177 49.8559 9.19709C49.8559 9.10535 49.5577 8.57783 49.1678 8.07324C48.8008 7.54572 48.4797 7.04113 48.4797 6.97232C48.4797 6.88058 48.0439 6.07783 47.4935 5.18333C46.943 4.28884 46.4384 3.39434 46.3467 3.21086C46.2549 3.02737 45.9797 2.54572 45.7274 2.17875C45.4751 1.78884 45.154 1.23838 45.0393 0.917279C44.9017 0.619113 44.6494 0.275077 44.5118 0.183333C44.3513 0.0915904 37.8146 -0.000152588 29.9705 -0.000152588C18.8008 -0.000152588 15.6586 0.0686549 15.521 0.275077ZM8.43384 12.6833C8.25036 12.798 7.99806 13.0962 7.86045 13.3714C7.74577 13.6466 7.56228 14.0365 7.42467 14.22C6.78246 15.2063 5.13109 18.0732 5.13109 18.2109C5.13109 18.3026 4.9476 18.6466 4.69531 18.9907C4.46595 19.3347 3.68613 20.642 2.95219 21.9035C2.21824 23.165 1.53017 24.22 1.41549 24.2659C1.09439 24.4035 1.20907 25.0916 1.73659 25.9173C2.6999 27.431 2.81457 27.6375 3.04393 28.142C3.45678 29.0595 4.44302 30.5044 4.64944 30.5044C4.76412 30.5044 5.10815 29.9998 5.42925 29.4035C6.55311 27.2705 9.25953 22.5687 9.97054 21.5136C10.2228 21.1696 10.4063 20.8255 10.4063 20.7567C10.4063 20.6879 11.1861 19.3347 12.1265 17.7521C13.0669 16.1696 13.8467 14.8164 13.8467 14.7246C13.8467 14.6558 14.1219 14.1971 14.443 13.7154C14.7871 13.2338 14.9935 12.7521 14.9017 12.6604C14.6494 12.431 8.84669 12.454 8.43384 12.6833ZM23.7549 12.6145C22.7228 12.7292 22.7228 12.7292 21.6219 14.9081C21.3467 15.4815 20.7733 16.4448 20.3834 17.087C19.9705 17.7063 19.3054 18.8531 18.8926 19.6099C18.4797 20.3668 18.021 21.1466 17.8834 21.3301C17.7458 21.5136 17.4247 22.0411 17.1724 22.4769C16.3696 23.9219 15.7045 25.0916 15.2228 25.9173C14.3971 27.3164 13.8008 28.3485 11.1403 32.9815L8.52558 37.4998L8.93843 38.3026C9.16779 38.7384 9.78705 39.8164 10.3146 40.7109C10.8192 41.5824 11.3237 42.5457 11.4155 42.8209C11.5072 43.1191 11.6678 43.3485 11.7595 43.3485C11.8513 43.3485 12.1494 43.7842 12.4476 44.3118C12.7228 44.8622 13.1586 45.5962 13.4109 45.9861C13.6403 46.3531 13.9843 46.9723 14.1678 47.3622C14.3513 47.7292 14.81 48.4861 15.1999 49.0365L15.9109 49.9998H44.3742L44.7641 49.3118C44.9705 48.9448 45.2228 48.6237 45.3375 48.6237C45.4293 48.6237 45.4981 48.509 45.4981 48.3714C45.4981 48.2338 45.8421 47.5228 46.2779 46.8118C46.6907 46.1008 47.3329 44.9998 47.677 44.3806C48.021 43.7384 49.0072 42.0411 49.8559 40.5962C55.0852 31.6742 54.9935 31.8576 54.6494 31.6283C54.466 31.5136 54.0302 31.4677 53.6632 31.5365C53.2962 31.6054 51.943 31.6512 50.6586 31.6512H48.2962L46.8742 34.1054C46.0944 35.4815 44.5806 38.0503 43.5256 39.8393C42.4705 41.6283 41.599 43.1879 41.599 43.3255C41.599 44.0136 40.5439 44.0824 29.8329 44.0595C23.8926 44.0365 19.0302 44.0136 19.0072 43.9677C18.4109 43.2109 15.4522 37.8668 15.4522 37.5916C15.4522 37.3622 15.9109 36.3989 16.4843 35.4815C17.0577 34.5411 17.5164 33.6925 17.5164 33.6237C17.5164 33.532 17.7687 33.1191 18.0898 32.7063C18.4109 32.2934 18.6632 31.8806 18.6632 31.7888C18.6632 31.6971 19.1907 30.7567 19.81 29.6787C20.4522 28.6008 20.9568 27.7063 20.9568 27.6604C20.9568 27.5687 23.5715 23.0962 24.5118 21.6054C24.8559 21.0778 25.3834 20.1604 25.6815 19.5641C26.0027 18.9677 26.7825 17.6375 27.4017 16.5824C28.021 15.5274 28.5256 14.6099 28.5256 14.5182C28.5256 14.4494 28.8008 14.0365 29.1219 13.6008C29.443 13.165 29.6494 12.7521 29.5806 12.6604C29.3971 12.4769 25.154 12.454 23.7549 12.6145Z" fill="black"/>
<path id="Vector_2" d="M33.5944 19.4722C33.2733 19.8392 32.7458 20.6419 32.4247 21.2383C31.6678 22.7291 30.9797 23.9676 25.2917 33.7612C24.7871 34.5869 24.3972 35.3667 24.3972 35.4584C24.3972 35.5502 24.1678 35.8713 23.9155 36.1465C23.2963 36.8117 23.4797 37.4997 24.2366 37.2933C24.5119 37.2245 27.5853 37.1557 31.0715 37.1557H37.3788L37.8834 36.1695C38.5256 34.9309 39.3284 33.5318 39.8559 32.752C40.5669 31.674 40.3605 31.5823 36.9889 31.5594C33.9843 31.5364 33.9155 31.5364 33.8467 31.0318C33.8009 30.7107 34.2366 29.7245 34.9706 28.5089C35.6357 27.408 36.3697 26.1236 36.599 25.6419L37.0119 24.7704H47.7917C54.5578 24.7704 58.5715 24.6786 58.5715 24.541C58.5715 24.2887 55.911 19.7704 55.4064 19.197C55.0853 18.83 54.3284 18.8071 44.6266 18.8071L34.1908 18.83L33.5944 19.4722Z" fill="black"/>
</g>
</g>
</g>
<defs>
<clipPath id="clip0_57_18">
<rect width="1600" height="960" fill="white" transform="translate(-136 -81)"/>
</clipPath>
<clipPath id="clip1_57_18">
<rect width="59.6659" height="50" fill="white"/>
</clipPath>
</defs>
</svg>
